<?xml version="1.0" encoding="UTF-8"?>
<svg id="Layer_2" data-name="Layer 2" xmlns="http://www.w3.org/2000/svg" xmlns:xlink="http://www.w3.org/1999/xlink" viewBox="0 0 177.99 196.49">
  <defs>
    <style>
      .cls-1 {
        fill: url(#linear-gradient-3);
      }

      .cls-2 {
        fill: url(#linear-gradient-2);
      }

      .cls-3 {
        fill: url(#linear-gradient);
      }
    </style>
    <linearGradient id="linear-gradient" x1="15.11" y1="-26.7" x2="194.4" y2="184.6" gradientUnits="userSpaceOnUse">
      <stop offset="0" stop-color="#ff004e"/>
      <stop offset="0" stop-color="#f7004c"/>
      <stop offset=".04" stop-color="#c60242"/>
      <stop offset=".08" stop-color="#990438"/>
      <stop offset=".12" stop-color="#730630"/>
      <stop offset=".16" stop-color="#52082a"/>
      <stop offset=".21" stop-color="#380924"/>
      <stop offset=".26" stop-color="#240a20"/>
      <stop offset=".32" stop-color="#150b1d"/>
      <stop offset=".39" stop-color="#0d0b1b"/>
      <stop offset=".5" stop-color="#0b0c1b"/>
      <stop offset=".62" stop-color="#0c0d1d"/>
      <stop offset=".69" stop-color="#0f1225"/>
      <stop offset=".75" stop-color="#151a34"/>
      <stop offset=".8" stop-color="#1e2648"/>
      <stop offset=".84" stop-color="#2a3662"/>
      <stop offset=".89" stop-color="#384983"/>
      <stop offset=".93" stop-color="#485fa9"/>
      <stop offset=".97" stop-color="#5b79d4"/>
      <stop offset="1" stop-color="#6e92ff"/>
    </linearGradient>
    <linearGradient id="linear-gradient-2" x1="-22.39" y1="4.85" x2="156.89" y2="216.15" xlink:href="#linear-gradient"/>
    <linearGradient id="linear-gradient-3" x1="-3.7" y1="-11" x2="175.71" y2="200.45" xlink:href="#linear-gradient"/>
  </defs>
  <g id="Layer_1-2" data-name="Layer 1">
    <g>
      <path class="cls-3" d="M110.72,0c9.55,0,15.22,10.62,9.88,18.5l-12.53,18.51-9.01,13.29c-2.22,3.27-5.92,5.23-9.88,5.23H11.92c-6.58,0-11.92-5.31-11.92-11.86V11.86C0,5.31,5.34,0,11.92,0h98.8Z"/>
      <path class="cls-2" d="M177.99,152.84v31.78c0,6.55-5.34,11.86-11.92,11.86h-98.8c-9.55,0-15.22-10.62-9.88-18.5h0s12.53-18.5,12.53-18.5l8.99-13.27c2.22-3.27,5.92-5.23,9.88-5.23h77.28c6.58,0,11.92,5.31,11.92,11.86Z"/>
      <path class="cls-1" d="M177.99,11.86v98.75c0,6.55-5.34,11.86-11.92,11.86h-87.16c-3.96,0-7.67,1.96-9.88,5.23l-8.99,13.27-12.53,18.5-12.53,18.5h-.02l-8.99,13.27c-2.22,3.27-5.92,5.23-9.88,5.23h-4.18c-6.58,0-11.92-5.31-11.92-11.86v-98.73c0-6.55,5.34-11.86,11.92-11.86h87.14c3.96,0,7.67-1.96,9.88-5.23l8.99-13.27h.02l12.53-18.52h.02l21.52-31.77c2.22-3.27,5.92-5.23,9.88-5.23h4.18c6.58,0,11.92,5.31,11.92,11.86Z"/>
    </g>
  </g>
</svg>